<svg xmlns="http://www.w3.org/2000/svg" xmlns:xlink="http://www.w3.org/1999/xlink" viewBox="0 0 261.7 85" fill="#FFF"><g id="Logo"><path class="cls-1" d="M25.3,76.9c6.9,0,10.1-3.9,12.8-9.3L50.3,43.2l6.2,22.3c2.4,8.6,5.6,11.4,11.7,11.4s10-2,13.4-10.3L90.8,44c.5,21.1,15.7,34.8,36.4,34.8S162,65.3,164.9,48.1l3.2,18c1.4,7.5,4.9,10.8,10.9,10.8s9.5-2.4,12.5-7.9l14-25.8L211,66.3c1.7,7,4.8,10.6,11,10.6s9.2-2.5,11.9-7.8l23.6-46A12.8,12.8,0,0,0,259,17c0-5.4-4.2-9.6-10.4-9.6s-9.2,3-11.6,8.3l-11.2,24-6-23.6c-1.3-5.3-4.3-8.7-10.2-8.7-3.8,0-7.6,1.1-11.1,7.7L185.7,39.8l-4.4-23.5c-1-6.2-5.4-8.9-10.6-8.9A10.3,10.3,0,0,0,160,18a19,19,0,0,0,.3,3.5l.4,2c-5.3-10-16.2-18-31.1-18-10.2,0-21.8,3.9-29,13.4a19.3,19.3,0,0,0,.1-2.4c-.1-5.2-3.5-9.1-9.7-9.1s-9,2.7-11.2,8.3L70,41.4,63.5,16.3c-1.4-5.2-4.1-8.9-10-8.9s-8.8,1.9-11.8,8.5L30.5,41.6,24.9,16.3c-1.4-6.2-5.8-8.9-11.1-8.9S3.1,11.7,3.4,18a9.6,9.6,0,0,0,.4,2.7l9.9,44c1.5,6.4,3.9,12.2,11.6,12.2Zm86.5-34.1c0-9.6,7.2-17.2,16.2-17.2s16.2,6.8,16.2,16.7S137.5,58.7,128,58.7s-16.2-7-16.2-15.9Z"/></g></svg>