<?xml version="1.0" encoding="utf-8"?>
<!-- Generator: Adobe Illustrator 23.0.2, SVG Export Plug-In . SVG Version: 6.00 Build 0)  -->
<svg version="1.1" id="Ebene_1" xmlns="http://www.w3.org/2000/svg" xmlns:xlink="http://www.w3.org/1999/xlink" x="0px" y="0px"
	 viewBox="0 0 100 23" style="enable-background:new 0 0 100 23;" xml:space="preserve">
<style type="text/css">
	.st0{fill:url(#SVGID_1_);}
	.st1{fill:url(#SVGID_2_);}
	.st2{fill:url(#SVGID_3_);}
	.st3{fill:url(#SVGID_4_);}
	.st4{fill:url(#SVGID_5_);}
	.st5{fill:url(#SVGID_6_);}
	.st6{fill:url(#SVGID_7_);}
</style>
<g>
	<g>
		<linearGradient id="SVGID_1_" gradientUnits="userSpaceOnUse" x1="14.3871" y1="9.8231" x2="91.6892" y2="35.8678">
			<stop  offset="0" style="stop-color:#F08300"/>
			<stop  offset="0.35" style="stop-color:#E3000F"/>
			<stop  offset="0.8" style="stop-color:#A72879"/>
			<stop  offset="1" style="stop-color:#064497"/>
		</linearGradient>
		<path class="st0" d="M12.343,13.928c0,2.123-1.385,3.668-4.201,3.971c-2.038,0.219-4.987-0.037-6.39-0.199
			c-0.048-0.228-0.086-0.512-0.086-0.74c0-1.849,0.996-2.275,1.934-2.275c0.977,0,2.513,0.17,3.651,0.17
			c1.26,0,1.641-0.425,1.641-0.833c0-0.532-0.503-0.75-1.479-0.939l-2.674-0.512C2.52,12.145,1.334,10.61,1.334,8.979
			c0-1.982,1.403-3.64,4.163-3.943c2.085-0.228,4.627,0.028,6.02,0.199c0.048,0.237,0.077,0.465,0.077,0.711
			c0,1.848-0.978,2.247-1.916,2.247c-0.72,0-1.839-0.134-3.119-0.134c-1.299,0-1.839,0.361-1.839,0.796
			c0,0.465,0.512,0.654,1.326,0.796l2.552,0.475C11.214,10.61,12.343,12.098,12.343,13.928 M16.918,16.202
			c0,1.138-0.446,1.792-2.664,1.792c-0.294,0-0.55-0.019-0.796-0.057V2.864c0-1.147,0.389-2.341,2.627-2.341
			c0.284,0,0.568,0.028,0.834,0.085V16.202z M25.987,22.033c0.294,0.151,0.892,0.332,1.641,0.351
			c1.29,0.028,1.991-0.464,2.513-1.621l6.912-15.415c-0.284-0.151-0.919-0.322-1.432-0.331c-0.891-0.019-2.085,0.161-2.844,1.981
			l-2.237,5.28l-4.39-7.148c-0.285-0.085-0.977-0.208-1.479-0.208c-1.554,0-2.418,0.568-3.319,1.545l-4.267,4.663l3.432,5.404
			c0.636,0.986,1.47,1.488,2.826,1.488c0.892,0,1.63-0.209,1.972-0.37l-4.133-6.229l2.929-3.109l4.807,7.547L25.987,22.033z"/>
	</g>
	<g>
		<linearGradient id="SVGID_2_" gradientUnits="userSpaceOnUse" x1="17.3747" y1="0.9565" x2="94.676" y2="27.001">
			<stop  offset="0" style="stop-color:#F08300"/>
			<stop  offset="0.35" style="stop-color:#E3000F"/>
			<stop  offset="0.8" style="stop-color:#A72879"/>
			<stop  offset="1" style="stop-color:#064497"/>
		</linearGradient>
		<path class="st1" d="M46.646,17.95c-0.209,0-0.415-0.01-0.617-0.029c-0.203-0.019-0.356-0.043-0.46-0.068V7.102h-3.917
			c-0.026-0.104-0.046-0.245-0.059-0.421c-0.013-0.176-0.02-0.362-0.02-0.558c0-0.418,0.085-0.692,0.255-0.822
			c0.17-0.13,0.385-0.196,0.646-0.196h9.166c0.052,0.196,0.078,0.496,0.078,0.901c0,0.731-0.301,1.097-0.901,1.097h-3.055v9.928
			c0,0.261-0.082,0.48-0.245,0.656C47.354,17.862,47.064,17.95,46.646,17.95z"/>
		<linearGradient id="SVGID_3_" gradientUnits="userSpaceOnUse" x1="17.9367" y1="-0.6987" x2="95.2291" y2="25.3428">
			<stop  offset="0" style="stop-color:#F08300"/>
			<stop  offset="0.35" style="stop-color:#E3000F"/>
			<stop  offset="0.8" style="stop-color:#A72879"/>
			<stop  offset="1" style="stop-color:#064497"/>
		</linearGradient>
		<path class="st2" d="M54.147,17.95c-0.209,0-0.415-0.01-0.617-0.029c-0.203-0.019-0.356-0.043-0.46-0.068V5.986
			c0-0.261,0.081-0.48,0.245-0.656c0.163-0.176,0.453-0.264,0.872-0.264c0.209,0,0.414,0.01,0.617,0.029
			c0.202,0.02,0.356,0.043,0.46,0.069V17.03c0,0.261-0.082,0.48-0.245,0.656C54.855,17.862,54.564,17.95,54.147,17.95z"/>
		<linearGradient id="SVGID_4_" gradientUnits="userSpaceOnUse" x1="18.8874" y1="-3.5294" x2="96.1861" y2="22.5141">
			<stop  offset="0" style="stop-color:#F08300"/>
			<stop  offset="0.35" style="stop-color:#E3000F"/>
			<stop  offset="0.8" style="stop-color:#A72879"/>
			<stop  offset="1" style="stop-color:#064497"/>
		</linearGradient>
		<path class="st3" d="M63.292,18.009c-0.888,0-1.711-0.16-2.468-0.48c-0.757-0.32-1.413-0.767-1.968-1.341
			c-0.555-0.574-0.989-1.26-1.302-2.056c-0.313-0.796-0.47-1.664-0.47-2.604c0-0.914,0.157-1.769,0.47-2.565
			c0.313-0.796,0.747-1.488,1.302-2.076c0.555-0.587,1.211-1.048,1.968-1.38c0.757-0.333,1.58-0.499,2.468-0.499
			c0.666,0,1.302,0.065,1.909,0.196c0.607,0.131,1.185,0.307,1.733,0.529c0.013,0.091,0.023,0.173,0.029,0.245
			c0.006,0.072,0.01,0.147,0.01,0.225c0,0.418-0.091,0.744-0.274,0.979c-0.183,0.235-0.411,0.352-0.685,0.352
			c-0.131,0-0.274-0.026-0.431-0.078c-0.157-0.052-0.336-0.111-0.539-0.176c-0.203-0.065-0.441-0.124-0.715-0.176
			c-0.274-0.052-0.594-0.078-0.96-0.078c-0.562,0-1.084,0.108-1.567,0.323c-0.483,0.215-0.904,0.519-1.263,0.91
			c-0.359,0.392-0.64,0.865-0.842,1.42c-0.203,0.555-0.304,1.172-0.304,1.85c0,0.705,0.101,1.335,0.304,1.89
			c0.202,0.555,0.483,1.025,0.842,1.41c0.359,0.385,0.78,0.676,1.263,0.871c0.483,0.196,1.005,0.294,1.567,0.294
			c0.365,0,0.682-0.026,0.95-0.078c0.267-0.052,0.499-0.111,0.695-0.176c0.196-0.065,0.365-0.124,0.509-0.176
			c0.144-0.052,0.287-0.078,0.431-0.078c0.326,0,0.588,0.108,0.783,0.323c0.196,0.215,0.294,0.532,0.294,0.95
			c0,0.091,0,0.176,0,0.255s-0.013,0.17-0.039,0.274c-0.548,0.235-1.116,0.415-1.704,0.539
			C64.703,17.947,64.037,18.009,63.292,18.009z"/>
		<linearGradient id="SVGID_5_" gradientUnits="userSpaceOnUse" x1="19.8718" y1="-6.4471" x2="97.1694" y2="19.5961">
			<stop  offset="0" style="stop-color:#F08300"/>
			<stop  offset="0.35" style="stop-color:#E3000F"/>
			<stop  offset="0.8" style="stop-color:#A72879"/>
			<stop  offset="1" style="stop-color:#064497"/>
		</linearGradient>
		<path class="st4" d="M69.775,17.95c-0.209,0-0.415-0.01-0.617-0.029c-0.203-0.019-0.356-0.043-0.46-0.068V5.986
			c0-0.261,0.081-0.48,0.245-0.656c0.163-0.176,0.454-0.264,0.872-0.264c0.209,0,0.414,0.01,0.617,0.029
			c0.202,0.02,0.356,0.043,0.46,0.069v5.835l4.504-5.306c0.183-0.222,0.375-0.382,0.578-0.48c0.202-0.098,0.486-0.147,0.852-0.147
			c0.209,0,0.447,0.029,0.715,0.088c0.267,0.059,0.493,0.14,0.676,0.245l-5.124,5.894l5.476,6.305
			c-0.196,0.105-0.428,0.189-0.695,0.255c-0.268,0.065-0.513,0.098-0.734,0.098c-0.379,0-0.676-0.056-0.891-0.166
			c-0.215-0.111-0.421-0.277-0.617-0.499l-4.74-5.483v5.228c0,0.261-0.082,0.48-0.245,0.656
			C70.483,17.862,70.192,17.95,69.775,17.95z"/>
		<linearGradient id="SVGID_6_" gradientUnits="userSpaceOnUse" x1="20.983" y1="-9.742" x2="98.28" y2="16.301">
			<stop  offset="0" style="stop-color:#F08300"/>
			<stop  offset="0.35" style="stop-color:#E3000F"/>
			<stop  offset="0.8" style="stop-color:#A72879"/>
			<stop  offset="1" style="stop-color:#064497"/>
		</linearGradient>
		<path class="st5" d="M80.84,17.833c-0.483,0-0.793-0.095-0.93-0.284c-0.137-0.189-0.206-0.434-0.206-0.734V6.123
			c0-0.3,0.069-0.545,0.206-0.734c0.137-0.189,0.447-0.284,0.93-0.284h6.581c0.026,0.105,0.049,0.248,0.068,0.431
			c0.02,0.183,0.029,0.366,0.029,0.548c0,0.379-0.082,0.643-0.245,0.793c-0.163,0.15-0.362,0.225-0.597,0.225h-4.779v3.407h5.053
			c0.013,0.105,0.029,0.238,0.049,0.401c0.02,0.163,0.029,0.336,0.029,0.519c0,0.366-0.075,0.62-0.225,0.764
			c-0.15,0.144-0.336,0.215-0.558,0.215h-4.348v3.427h5.699c0.013,0.105,0.029,0.238,0.049,0.401
			c0.02,0.163,0.029,0.336,0.029,0.519c0,0.392-0.078,0.669-0.235,0.832c-0.157,0.163-0.353,0.245-0.588,0.245H80.84z"/>
		<linearGradient id="SVGID_7_" gradientUnits="userSpaceOnUse" x1="22.1526" y1="-13.2238" x2="99.4539" y2="12.8207">
			<stop  offset="0" style="stop-color:#F08300"/>
			<stop  offset="0.35" style="stop-color:#E3000F"/>
			<stop  offset="0.8" style="stop-color:#A72879"/>
			<stop  offset="1" style="stop-color:#064497"/>
		</linearGradient>
		<path class="st6" d="M93.511,17.95c-0.209,0-0.415-0.01-0.617-0.029c-0.203-0.019-0.356-0.043-0.46-0.068V7.102h-3.917
			c-0.026-0.104-0.046-0.245-0.059-0.421c-0.013-0.176-0.02-0.362-0.02-0.558c0-0.418,0.085-0.692,0.255-0.822
			c0.17-0.13,0.385-0.196,0.646-0.196h9.166c0.052,0.196,0.078,0.496,0.078,0.901c0,0.731-0.301,1.097-0.901,1.097h-3.055v9.928
			c0,0.261-0.082,0.48-0.245,0.656C94.22,17.862,93.929,17.95,93.511,17.95z"/>
	</g>
</g>
</svg>
